<svg version="1.2" xmlns="http://www.w3.org/2000/svg" viewBox="0 0 634 635" width="634" height="635"><defs><linearGradient id="P" gradientUnits="userSpaceOnUse"/><linearGradient id="g1" x2="1" href="#P" gradientTransform="matrix(621,0,0,621,6,316.5)"><stop stop-color="#497ac5"/><stop offset="1" stop-color="#68cf91"/></linearGradient></defs><style>.a{fill:url(#g1)}.b{fill:#fff}.c{opacity:.3;fill:#fff}</style><path class="a" d="m316.5 627c-171.7 0-310.5-138.8-310.5-310.5 0-171.7 138.8-310.5 310.5-310.5 171.7 0 310.5 138.8 310.5 310.5 0 171.7-138.8 310.5-310.5 310.5zm-84-359c-13 0-23.5-10.5-23.5-23.5 0-13 10.5-23.5 23.5-23.5 13 0 23.5 10.5 23.5 23.5 0 13-10.5 23.5-23.5 23.5z"/><path class="b" d="m307.4 490.8q-32.3 0.6-61.5-2.3-29.1-2.9-46.8-9.5-15.7-5.1-23.7-13.3-7.6-8.2-7.8-18.9-0.3-14.1 8.3-30.2 8.6-16 25.9-33.7 11.3-11.7 27.4-28.2 16.1-16.7 34.2-35.6 18.3-18.8 36.1-37.6 18.1-18.8 33-35.2 15-16.5 24.6-27.9 9-10 12.9-17 3.9-7 3.8-11.3-0.1-4.1-6.4-6-6.1-2.2-18.5-1.9-5.5 0.1-19 0.9-13.6 0.9-30.6 2.1-16.9 1.2-33.1 2.1-15.8 0.9-26.5 1.1-23.3 0.4-37.7-1-14.2-1.7-20.6-6.5-6.5-4.8-6.6-13.4-0.3-11.3 7.4-18.6 7.9-7.4 23.4-12 15.7-4.7 38.8-6.9 23.3-2.2 54.1-2.8 24.8-0.5 50.2 0.2 25.3 0.4 45.5 2.3 20.5 1.6 30.4 4.6 14.8 4.6 22.5 13.1 7.9 8.2 8.1 20.3 0.2 9.8-3.9 19.4-3.9 9.3-10.6 18.7-6.4 9.3-14.3 18.7-5.6 7.3-17.2 21.1-11.5 13.8-27 31.7-15.3 17.6-32.2 37-16.6 19-33.2 37.5-16.4 18.2-29.9 33.5-12.2 12.6-18.1 21.1-5.9 8.5-5.7 14.3 0 3.1 6.4 5.6 6.4 2.2 22.3 3.3 15.8 0.9 43.8 0.3 18.1-0.3 34.8-2.1 16.7-2.1 29.9-3.5 13.5-1.7 21.6-1.9 8.7-0.1 15 1.8 6.7 1.9 10.3 6.7 3.8 4.8 4 13.5 0.2 9.2-8.9 16.3-9.1 7.1-24.9 12.9-15.4 5.5-34.6 9.3-19 3.6-38.6 5.7-19.5 1.8-36.8 2.2z"/><path class="c" d="m319 505.9q-32.3 0.7-61.5-2.2-29.2-2.9-46.9-9.5-15.6-5.1-23.6-13.3-7.6-8.3-7.9-18.9-0.2-14.2 8.4-30.2 8.6-16 25.8-33.7 11.3-11.7 27.4-28.2 16.1-16.7 34.2-35.6 18.4-18.8 36.2-37.6 18.1-18.8 33-35.3 15-16.4 24.5-27.8 9.1-10 13-17 3.9-7 3.8-11.3-0.1-4.1-6.5-6-6.1-2.2-18.5-1.9-5.4 0.1-19 0.9-13.5 0.9-30.5 2.1-17 1.2-33.1 2.1-15.8 0.9-26.5 1.1-23.3 0.4-37.8-1-14.1-1.8-20.6-6.5-6.4-4.8-6.6-13.5-0.2-11.2 7.4-18.6 8-7.3 23.4-12 15.8-4.6 38.8-6.8 23.3-2.2 54.2-2.8 24.7-0.5 50.1 0.2 25.4 0.4 45.6 2.3 20.5 1.6 30.4 4.6 14.8 4.6 22.4 13.1 8 8.2 8.2 20.3 0.2 9.8-3.9 19.4-3.9 9.3-10.6 18.7-6.5 9.3-14.4 18.7-5.6 7.3-17.1 21.1-11.6 13.8-27.1 31.7-15.2 17.6-32.1 37-16.6 19-33.3 37.5-16.3 18.2-29.9 33.5-12.1 12.6-18 21.1-5.9 8.5-5.8 14.3 0.1 3.1 6.5 5.6 6.4 2.2 22.2 3.3 15.9 0.9 43.9 0.3 18.1-0.4 34.8-2.1 16.7-2.1 29.9-3.5 13.5-1.7 21.6-1.9 8.6-0.1 15 1.8 6.7 1.8 10.2 6.7 3.9 4.8 4 13.5 0.2 9.2-8.9 16.3-9 7.1-24.8 12.9-15.4 5.5-34.7 9.3-18.9 3.6-38.5 5.7-19.6 1.8-36.8 2.1z"/></svg>